<mxfile host="app.diagrams.net" modified="2021-03-16T00:18:27.024Z" agent="5.0 (Windows NT 10.0; Win64; x64) AppleWebKit/537.36 (KHTML, like Gecko) Chrome/89.0.4389.82 Safari/537.36" etag="sn_586GWhA_1NQIIoeBP" version="14.4.8" type="github">
  <diagram id="C5RBs43oDa-KdzZeNtuy" name="Page-1">
    <mxGraphModel dx="942" dy="614" grid="1" gridSize="10" guides="1" tooltips="1" connect="1" arrows="1" fold="1" page="1" pageScale="1" pageWidth="827" pageHeight="1169" math="0" shadow="0">
      <root>
        <mxCell id="WIyWlLk6GJQsqaUBKTNV-0" />
        <mxCell id="WIyWlLk6GJQsqaUBKTNV-1" parent="WIyWlLk6GJQsqaUBKTNV-0" />
        <mxCell id="dlD8IBOsBmWyrxZdzXUg-52" value="" style="shape=table;html=1;whiteSpace=wrap;startSize=0;container=1;collapsible=0;childLayout=tableLayout;" vertex="1" parent="WIyWlLk6GJQsqaUBKTNV-1">
          <mxGeometry y="200" width="540" height="210" as="geometry" />
        </mxCell>
        <mxCell id="dlD8IBOsBmWyrxZdzXUg-53" value="" style="shape=partialRectangle;html=1;whiteSpace=wrap;collapsible=0;dropTarget=0;pointerEvents=0;fillColor=none;top=0;left=0;bottom=0;right=0;points=[[0,0.5],[1,0.5]];portConstraint=eastwest;" vertex="1" parent="dlD8IBOsBmWyrxZdzXUg-52">
          <mxGeometry width="540" height="40" as="geometry" />
        </mxCell>
        <mxCell id="dlD8IBOsBmWyrxZdzXUg-54" value="&lt;font style=&quot;vertical-align: inherit&quot;&gt;&lt;font style=&quot;vertical-align: inherit&quot;&gt;processo&lt;/font&gt;&lt;/font&gt;" style="shape=partialRectangle;html=1;whiteSpace=wrap;connectable=0;overflow=hidden;fillColor=none;top=0;left=0;bottom=0;right=0;" vertex="1" parent="dlD8IBOsBmWyrxZdzXUg-53">
          <mxGeometry width="110" height="40" as="geometry" />
        </mxCell>
        <mxCell id="dlD8IBOsBmWyrxZdzXUg-55" value="&lt;font style=&quot;vertical-align: inherit&quot;&gt;&lt;font style=&quot;vertical-align: inherit&quot;&gt;e_nro_1&lt;/font&gt;&lt;/font&gt;" style="shape=partialRectangle;html=1;whiteSpace=wrap;connectable=0;overflow=hidden;fillColor=none;top=0;left=0;bottom=0;right=0;" vertex="1" parent="dlD8IBOsBmWyrxZdzXUg-53">
          <mxGeometry x="110" width="106" height="40" as="geometry" />
        </mxCell>
        <mxCell id="dlD8IBOsBmWyrxZdzXUg-56" value="&lt;font style=&quot;vertical-align: inherit&quot;&gt;&lt;font style=&quot;vertical-align: inherit&quot;&gt;e_nro_2&lt;/font&gt;&lt;/font&gt;" style="shape=partialRectangle;html=1;whiteSpace=wrap;connectable=0;overflow=hidden;fillColor=none;top=0;left=0;bottom=0;right=0;" vertex="1" parent="dlD8IBOsBmWyrxZdzXUg-53">
          <mxGeometry x="216" width="108" height="40" as="geometry" />
        </mxCell>
        <mxCell id="dlD8IBOsBmWyrxZdzXUg-57" value="&lt;font style=&quot;vertical-align: inherit&quot;&gt;&lt;font style=&quot;vertical-align: inherit&quot;&gt;e_nro_3&lt;/font&gt;&lt;/font&gt;" style="shape=partialRectangle;html=1;whiteSpace=wrap;connectable=0;overflow=hidden;fillColor=none;top=0;left=0;bottom=0;right=0;" vertex="1" parent="dlD8IBOsBmWyrxZdzXUg-53">
          <mxGeometry x="324" width="108" height="40" as="geometry" />
        </mxCell>
        <mxCell id="dlD8IBOsBmWyrxZdzXUg-58" value="&lt;font style=&quot;vertical-align: inherit&quot;&gt;&lt;font style=&quot;vertical-align: inherit&quot;&gt;Saida&lt;/font&gt;&lt;/font&gt;" style="shape=partialRectangle;html=1;whiteSpace=wrap;connectable=0;overflow=hidden;fillColor=none;top=0;left=0;bottom=0;right=0;" vertex="1" parent="dlD8IBOsBmWyrxZdzXUg-53">
          <mxGeometry x="432" width="108" height="40" as="geometry" />
        </mxCell>
        <mxCell id="dlD8IBOsBmWyrxZdzXUg-59" value="" style="shape=partialRectangle;html=1;whiteSpace=wrap;collapsible=0;dropTarget=0;pointerEvents=0;fillColor=none;top=0;left=0;bottom=0;right=0;points=[[0,0.5],[1,0.5]];portConstraint=eastwest;" vertex="1" parent="dlD8IBOsBmWyrxZdzXUg-52">
          <mxGeometry y="40" width="540" height="40" as="geometry" />
        </mxCell>
        <mxCell id="dlD8IBOsBmWyrxZdzXUg-60" value="&lt;font style=&quot;vertical-align: inherit&quot;&gt;&lt;font style=&quot;vertical-align: inherit&quot;&gt;1&lt;/font&gt;&lt;/font&gt;" style="shape=partialRectangle;html=1;whiteSpace=wrap;connectable=0;overflow=hidden;fillColor=none;top=0;left=0;bottom=0;right=0;" vertex="1" parent="dlD8IBOsBmWyrxZdzXUg-59">
          <mxGeometry width="110" height="40" as="geometry" />
        </mxCell>
        <mxCell id="dlD8IBOsBmWyrxZdzXUg-61" value="&lt;font style=&quot;vertical-align: inherit&quot;&gt;&lt;font style=&quot;vertical-align: inherit&quot;&gt;&lt;font style=&quot;vertical-align: inherit&quot;&gt;&lt;font style=&quot;vertical-align: inherit&quot;&gt;{21}&lt;/font&gt;&lt;/font&gt;&lt;/font&gt;&lt;/font&gt;" style="shape=partialRectangle;html=1;whiteSpace=wrap;connectable=0;overflow=hidden;fillColor=none;top=0;left=0;bottom=0;right=0;" vertex="1" parent="dlD8IBOsBmWyrxZdzXUg-59">
          <mxGeometry x="110" width="106" height="40" as="geometry" />
        </mxCell>
        <mxCell id="dlD8IBOsBmWyrxZdzXUg-62" value="" style="shape=partialRectangle;html=1;whiteSpace=wrap;connectable=0;overflow=hidden;fillColor=none;top=0;left=0;bottom=0;right=0;" vertex="1" parent="dlD8IBOsBmWyrxZdzXUg-59">
          <mxGeometry x="216" width="108" height="40" as="geometry" />
        </mxCell>
        <mxCell id="dlD8IBOsBmWyrxZdzXUg-63" value="" style="shape=partialRectangle;html=1;whiteSpace=wrap;connectable=0;overflow=hidden;fillColor=none;top=0;left=0;bottom=0;right=0;" vertex="1" parent="dlD8IBOsBmWyrxZdzXUg-59">
          <mxGeometry x="324" width="108" height="40" as="geometry" />
        </mxCell>
        <mxCell id="dlD8IBOsBmWyrxZdzXUg-64" value="" style="shape=partialRectangle;html=1;whiteSpace=wrap;connectable=0;overflow=hidden;fillColor=none;top=0;left=0;bottom=0;right=0;" vertex="1" parent="dlD8IBOsBmWyrxZdzXUg-59">
          <mxGeometry x="432" width="108" height="40" as="geometry" />
        </mxCell>
        <mxCell id="dlD8IBOsBmWyrxZdzXUg-71" value="" style="shape=partialRectangle;html=1;whiteSpace=wrap;collapsible=0;dropTarget=0;pointerEvents=0;fillColor=none;top=0;left=0;bottom=0;right=0;points=[[0,0.5],[1,0.5]];portConstraint=eastwest;" vertex="1" parent="dlD8IBOsBmWyrxZdzXUg-52">
          <mxGeometry y="80" width="540" height="40" as="geometry" />
        </mxCell>
        <mxCell id="dlD8IBOsBmWyrxZdzXUg-72" value="&lt;font style=&quot;vertical-align: inherit&quot;&gt;&lt;font style=&quot;vertical-align: inherit&quot;&gt;2&lt;/font&gt;&lt;/font&gt;" style="shape=partialRectangle;html=1;whiteSpace=wrap;connectable=0;overflow=hidden;fillColor=none;top=0;left=0;bottom=0;right=0;" vertex="1" parent="dlD8IBOsBmWyrxZdzXUg-71">
          <mxGeometry width="110" height="40" as="geometry" />
        </mxCell>
        <mxCell id="dlD8IBOsBmWyrxZdzXUg-73" value="&lt;font style=&quot;vertical-align: inherit&quot;&gt;&lt;font style=&quot;vertical-align: inherit&quot;&gt;21&lt;/font&gt;&lt;/font&gt;" style="shape=partialRectangle;html=1;whiteSpace=wrap;connectable=0;overflow=hidden;fillColor=none;top=0;left=0;bottom=0;right=0;" vertex="1" parent="dlD8IBOsBmWyrxZdzXUg-71">
          <mxGeometry x="110" width="106" height="40" as="geometry" />
        </mxCell>
        <mxCell id="dlD8IBOsBmWyrxZdzXUg-74" value="&lt;font style=&quot;vertical-align: inherit&quot;&gt;&lt;font style=&quot;vertical-align: inherit&quot;&gt;&lt;font style=&quot;vertical-align: inherit&quot;&gt;&lt;font style=&quot;vertical-align: inherit&quot;&gt;{34}&lt;/font&gt;&lt;/font&gt;&lt;/font&gt;&lt;/font&gt;" style="shape=partialRectangle;html=1;whiteSpace=wrap;connectable=0;overflow=hidden;fillColor=none;top=0;left=0;bottom=0;right=0;" vertex="1" parent="dlD8IBOsBmWyrxZdzXUg-71">
          <mxGeometry x="216" width="108" height="40" as="geometry" />
        </mxCell>
        <mxCell id="dlD8IBOsBmWyrxZdzXUg-75" value="" style="shape=partialRectangle;html=1;whiteSpace=wrap;connectable=0;overflow=hidden;fillColor=none;top=0;left=0;bottom=0;right=0;" vertex="1" parent="dlD8IBOsBmWyrxZdzXUg-71">
          <mxGeometry x="324" width="108" height="40" as="geometry" />
        </mxCell>
        <mxCell id="dlD8IBOsBmWyrxZdzXUg-76" value="" style="shape=partialRectangle;html=1;whiteSpace=wrap;connectable=0;overflow=hidden;fillColor=none;top=0;left=0;bottom=0;right=0;" vertex="1" parent="dlD8IBOsBmWyrxZdzXUg-71">
          <mxGeometry x="432" width="108" height="40" as="geometry" />
        </mxCell>
        <mxCell id="dlD8IBOsBmWyrxZdzXUg-77" value="" style="shape=partialRectangle;html=1;whiteSpace=wrap;collapsible=0;dropTarget=0;pointerEvents=0;fillColor=none;top=0;left=0;bottom=0;right=0;points=[[0,0.5],[1,0.5]];portConstraint=eastwest;" vertex="1" parent="dlD8IBOsBmWyrxZdzXUg-52">
          <mxGeometry y="120" width="540" height="40" as="geometry" />
        </mxCell>
        <mxCell id="dlD8IBOsBmWyrxZdzXUg-78" value="&lt;font style=&quot;vertical-align: inherit&quot;&gt;&lt;font style=&quot;vertical-align: inherit&quot;&gt;3&lt;/font&gt;&lt;/font&gt;&lt;br&gt;" style="shape=partialRectangle;html=1;whiteSpace=wrap;connectable=0;overflow=hidden;fillColor=none;top=0;left=0;bottom=0;right=0;" vertex="1" parent="dlD8IBOsBmWyrxZdzXUg-77">
          <mxGeometry width="110" height="40" as="geometry" />
        </mxCell>
        <mxCell id="dlD8IBOsBmWyrxZdzXUg-79" value="&lt;font style=&quot;vertical-align: inherit&quot;&gt;&lt;font style=&quot;vertical-align: inherit&quot;&gt;21&lt;/font&gt;&lt;/font&gt;" style="shape=partialRectangle;html=1;whiteSpace=wrap;connectable=0;overflow=hidden;fillColor=none;top=0;left=0;bottom=0;right=0;" vertex="1" parent="dlD8IBOsBmWyrxZdzXUg-77">
          <mxGeometry x="110" width="106" height="40" as="geometry" />
        </mxCell>
        <mxCell id="dlD8IBOsBmWyrxZdzXUg-80" value="&lt;font style=&quot;vertical-align: inherit&quot;&gt;&lt;font style=&quot;vertical-align: inherit&quot;&gt;34&lt;/font&gt;&lt;/font&gt;" style="shape=partialRectangle;html=1;whiteSpace=wrap;connectable=0;overflow=hidden;fillColor=none;top=0;left=0;bottom=0;right=0;" vertex="1" parent="dlD8IBOsBmWyrxZdzXUg-77">
          <mxGeometry x="216" width="108" height="40" as="geometry" />
        </mxCell>
        <mxCell id="dlD8IBOsBmWyrxZdzXUg-81" value="&lt;font style=&quot;vertical-align: inherit&quot;&gt;&lt;font style=&quot;vertical-align: inherit&quot;&gt;&lt;font style=&quot;vertical-align: inherit&quot;&gt;&lt;font style=&quot;vertical-align: inherit&quot;&gt;{3}&lt;/font&gt;&lt;/font&gt;&lt;/font&gt;&lt;/font&gt;" style="shape=partialRectangle;html=1;whiteSpace=wrap;connectable=0;overflow=hidden;fillColor=none;top=0;left=0;bottom=0;right=0;" vertex="1" parent="dlD8IBOsBmWyrxZdzXUg-77">
          <mxGeometry x="324" width="108" height="40" as="geometry" />
        </mxCell>
        <mxCell id="dlD8IBOsBmWyrxZdzXUg-82" value="" style="shape=partialRectangle;html=1;whiteSpace=wrap;connectable=0;overflow=hidden;fillColor=none;top=0;left=0;bottom=0;right=0;" vertex="1" parent="dlD8IBOsBmWyrxZdzXUg-77">
          <mxGeometry x="432" width="108" height="40" as="geometry" />
        </mxCell>
        <mxCell id="dlD8IBOsBmWyrxZdzXUg-83" value="" style="shape=partialRectangle;html=1;whiteSpace=wrap;collapsible=0;dropTarget=0;pointerEvents=0;fillColor=none;top=0;left=0;bottom=0;right=0;points=[[0,0.5],[1,0.5]];portConstraint=eastwest;" vertex="1" parent="dlD8IBOsBmWyrxZdzXUg-52">
          <mxGeometry y="160" width="540" height="50" as="geometry" />
        </mxCell>
        <mxCell id="dlD8IBOsBmWyrxZdzXUg-84" value="&lt;font style=&quot;vertical-align: inherit&quot;&gt;&lt;font style=&quot;vertical-align: inherit&quot;&gt;7&lt;/font&gt;&lt;/font&gt;" style="shape=partialRectangle;html=1;whiteSpace=wrap;connectable=0;overflow=hidden;fillColor=none;top=0;left=0;bottom=0;right=0;" vertex="1" parent="dlD8IBOsBmWyrxZdzXUg-83">
          <mxGeometry width="110" height="50" as="geometry" />
        </mxCell>
        <mxCell id="dlD8IBOsBmWyrxZdzXUg-85" value="&lt;font style=&quot;vertical-align: inherit&quot;&gt;&lt;font style=&quot;vertical-align: inherit&quot;&gt;21&lt;/font&gt;&lt;/font&gt;" style="shape=partialRectangle;html=1;whiteSpace=wrap;connectable=0;overflow=hidden;fillColor=none;top=0;left=0;bottom=0;right=0;" vertex="1" parent="dlD8IBOsBmWyrxZdzXUg-83">
          <mxGeometry x="110" width="106" height="50" as="geometry" />
        </mxCell>
        <mxCell id="dlD8IBOsBmWyrxZdzXUg-86" value="&lt;font style=&quot;vertical-align: inherit&quot;&gt;&lt;font style=&quot;vertical-align: inherit&quot;&gt;34&lt;/font&gt;&lt;/font&gt;" style="shape=partialRectangle;html=1;whiteSpace=wrap;connectable=0;overflow=hidden;fillColor=none;top=0;left=0;bottom=0;right=0;" vertex="1" parent="dlD8IBOsBmWyrxZdzXUg-83">
          <mxGeometry x="216" width="108" height="50" as="geometry" />
        </mxCell>
        <mxCell id="dlD8IBOsBmWyrxZdzXUg-87" value="&lt;font style=&quot;vertical-align: inherit&quot;&gt;&lt;font style=&quot;vertical-align: inherit&quot;&gt;3&lt;/font&gt;&lt;/font&gt;" style="shape=partialRectangle;html=1;whiteSpace=wrap;connectable=0;overflow=hidden;fillColor=none;top=0;left=0;bottom=0;right=0;" vertex="1" parent="dlD8IBOsBmWyrxZdzXUg-83">
          <mxGeometry x="324" width="108" height="50" as="geometry" />
        </mxCell>
        <mxCell id="dlD8IBOsBmWyrxZdzXUg-88" value="&lt;font style=&quot;vertical-align: inherit&quot;&gt;&lt;font style=&quot;vertical-align: inherit&quot;&gt;e_nro_3&lt;br&gt;e_nro_1&lt;br&gt;e_nro_2&lt;br&gt;&lt;/font&gt;&lt;/font&gt;" style="shape=partialRectangle;html=1;whiteSpace=wrap;connectable=0;overflow=hidden;fillColor=none;top=0;left=0;bottom=0;right=0;" vertex="1" parent="dlD8IBOsBmWyrxZdzXUg-83">
          <mxGeometry x="432" width="108" height="50" as="geometry" />
        </mxCell>
        <mxCell id="dlD8IBOsBmWyrxZdzXUg-102" value="&lt;font style=&quot;vertical-align: inherit&quot;&gt;&lt;font style=&quot;vertical-align: inherit&quot;&gt;i.&lt;/font&gt;&lt;/font&gt;" style="whiteSpace=wrap;html=1;" vertex="1" parent="WIyWlLk6GJQsqaUBKTNV-1">
          <mxGeometry y="170" width="540" height="30" as="geometry" />
        </mxCell>
        <mxCell id="dlD8IBOsBmWyrxZdzXUg-103" value="" style="shape=table;html=1;whiteSpace=wrap;startSize=0;container=1;collapsible=0;childLayout=tableLayout;" vertex="1" parent="WIyWlLk6GJQsqaUBKTNV-1">
          <mxGeometry y="460" width="540" height="250" as="geometry" />
        </mxCell>
        <mxCell id="dlD8IBOsBmWyrxZdzXUg-104" value="" style="shape=partialRectangle;html=1;whiteSpace=wrap;collapsible=0;dropTarget=0;pointerEvents=0;fillColor=none;top=0;left=0;bottom=0;right=0;points=[[0,0.5],[1,0.5]];portConstraint=eastwest;" vertex="1" parent="dlD8IBOsBmWyrxZdzXUg-103">
          <mxGeometry width="540" height="50" as="geometry" />
        </mxCell>
        <mxCell id="dlD8IBOsBmWyrxZdzXUg-105" value="&lt;font style=&quot;vertical-align: inherit&quot;&gt;&lt;font style=&quot;vertical-align: inherit&quot;&gt;processo&lt;/font&gt;&lt;/font&gt;" style="shape=partialRectangle;html=1;whiteSpace=wrap;connectable=0;overflow=hidden;fillColor=none;top=0;left=0;bottom=0;right=0;" vertex="1" parent="dlD8IBOsBmWyrxZdzXUg-104">
          <mxGeometry width="110" height="50" as="geometry" />
        </mxCell>
        <mxCell id="dlD8IBOsBmWyrxZdzXUg-106" value="&lt;font style=&quot;vertical-align: inherit&quot;&gt;&lt;font style=&quot;vertical-align: inherit&quot;&gt;e_nro_1&lt;/font&gt;&lt;/font&gt;" style="shape=partialRectangle;html=1;whiteSpace=wrap;connectable=0;overflow=hidden;fillColor=none;top=0;left=0;bottom=0;right=0;" vertex="1" parent="dlD8IBOsBmWyrxZdzXUg-104">
          <mxGeometry x="110" width="110" height="50" as="geometry" />
        </mxCell>
        <mxCell id="dlD8IBOsBmWyrxZdzXUg-107" value="&lt;font style=&quot;vertical-align: inherit&quot;&gt;&lt;font style=&quot;vertical-align: inherit&quot;&gt;e_nro_2&lt;/font&gt;&lt;/font&gt;" style="shape=partialRectangle;html=1;whiteSpace=wrap;connectable=0;overflow=hidden;fillColor=none;top=0;left=0;bottom=0;right=0;" vertex="1" parent="dlD8IBOsBmWyrxZdzXUg-104">
          <mxGeometry x="220" width="110" height="50" as="geometry" />
        </mxCell>
        <mxCell id="dlD8IBOsBmWyrxZdzXUg-108" value="&lt;font style=&quot;vertical-align: inherit&quot;&gt;&lt;font style=&quot;vertical-align: inherit&quot;&gt;e_nro_3&lt;/font&gt;&lt;/font&gt;" style="shape=partialRectangle;html=1;whiteSpace=wrap;connectable=0;overflow=hidden;fillColor=none;top=0;left=0;bottom=0;right=0;" vertex="1" parent="dlD8IBOsBmWyrxZdzXUg-104">
          <mxGeometry x="330" width="110" height="50" as="geometry" />
        </mxCell>
        <mxCell id="dlD8IBOsBmWyrxZdzXUg-109" value="&lt;font style=&quot;vertical-align: inherit&quot;&gt;&lt;font style=&quot;vertical-align: inherit&quot;&gt;Saida&lt;/font&gt;&lt;/font&gt;" style="shape=partialRectangle;html=1;whiteSpace=wrap;connectable=0;overflow=hidden;fillColor=none;top=0;left=0;bottom=0;right=0;" vertex="1" parent="dlD8IBOsBmWyrxZdzXUg-104">
          <mxGeometry x="440" width="100" height="50" as="geometry" />
        </mxCell>
        <mxCell id="dlD8IBOsBmWyrxZdzXUg-110" value="" style="shape=partialRectangle;html=1;whiteSpace=wrap;collapsible=0;dropTarget=0;pointerEvents=0;fillColor=none;top=0;left=0;bottom=0;right=0;points=[[0,0.5],[1,0.5]];portConstraint=eastwest;" vertex="1" parent="dlD8IBOsBmWyrxZdzXUg-103">
          <mxGeometry y="50" width="540" height="50" as="geometry" />
        </mxCell>
        <mxCell id="dlD8IBOsBmWyrxZdzXUg-111" value="&lt;font style=&quot;vertical-align: inherit&quot;&gt;&lt;font style=&quot;vertical-align: inherit&quot;&gt;1&lt;/font&gt;&lt;/font&gt;" style="shape=partialRectangle;html=1;whiteSpace=wrap;connectable=0;overflow=hidden;fillColor=none;top=0;left=0;bottom=0;right=0;" vertex="1" parent="dlD8IBOsBmWyrxZdzXUg-110">
          <mxGeometry width="110" height="50" as="geometry" />
        </mxCell>
        <mxCell id="dlD8IBOsBmWyrxZdzXUg-112" value="&lt;font style=&quot;vertical-align: inherit&quot;&gt;&lt;font style=&quot;vertical-align: inherit&quot;&gt;{10}&lt;/font&gt;&lt;/font&gt;" style="shape=partialRectangle;html=1;whiteSpace=wrap;connectable=0;overflow=hidden;fillColor=none;top=0;left=0;bottom=0;right=0;" vertex="1" parent="dlD8IBOsBmWyrxZdzXUg-110">
          <mxGeometry x="110" width="110" height="50" as="geometry" />
        </mxCell>
        <mxCell id="dlD8IBOsBmWyrxZdzXUg-113" value="" style="shape=partialRectangle;html=1;whiteSpace=wrap;connectable=0;overflow=hidden;fillColor=none;top=0;left=0;bottom=0;right=0;" vertex="1" parent="dlD8IBOsBmWyrxZdzXUg-110">
          <mxGeometry x="220" width="110" height="50" as="geometry" />
        </mxCell>
        <mxCell id="dlD8IBOsBmWyrxZdzXUg-114" value="" style="shape=partialRectangle;html=1;whiteSpace=wrap;connectable=0;overflow=hidden;fillColor=none;top=0;left=0;bottom=0;right=0;" vertex="1" parent="dlD8IBOsBmWyrxZdzXUg-110">
          <mxGeometry x="330" width="110" height="50" as="geometry" />
        </mxCell>
        <mxCell id="dlD8IBOsBmWyrxZdzXUg-115" value="" style="shape=partialRectangle;html=1;whiteSpace=wrap;connectable=0;overflow=hidden;fillColor=none;top=0;left=0;bottom=0;right=0;" vertex="1" parent="dlD8IBOsBmWyrxZdzXUg-110">
          <mxGeometry x="440" width="100" height="50" as="geometry" />
        </mxCell>
        <mxCell id="dlD8IBOsBmWyrxZdzXUg-116" value="" style="shape=partialRectangle;html=1;whiteSpace=wrap;collapsible=0;dropTarget=0;pointerEvents=0;fillColor=none;top=0;left=0;bottom=0;right=0;points=[[0,0.5],[1,0.5]];portConstraint=eastwest;" vertex="1" parent="dlD8IBOsBmWyrxZdzXUg-103">
          <mxGeometry y="100" width="540" height="50" as="geometry" />
        </mxCell>
        <mxCell id="dlD8IBOsBmWyrxZdzXUg-117" value="&lt;font style=&quot;vertical-align: inherit&quot;&gt;&lt;font style=&quot;vertical-align: inherit&quot;&gt;2&lt;/font&gt;&lt;/font&gt;" style="shape=partialRectangle;html=1;whiteSpace=wrap;connectable=0;overflow=hidden;fillColor=none;top=0;left=0;bottom=0;right=0;" vertex="1" parent="dlD8IBOsBmWyrxZdzXUg-116">
          <mxGeometry width="110" height="50" as="geometry" />
        </mxCell>
        <mxCell id="dlD8IBOsBmWyrxZdzXUg-118" value="&lt;font style=&quot;vertical-align: inherit&quot;&gt;&lt;font style=&quot;vertical-align: inherit&quot;&gt;10&lt;/font&gt;&lt;/font&gt;" style="shape=partialRectangle;html=1;whiteSpace=wrap;connectable=0;overflow=hidden;fillColor=none;top=0;left=0;bottom=0;right=0;" vertex="1" parent="dlD8IBOsBmWyrxZdzXUg-116">
          <mxGeometry x="110" width="110" height="50" as="geometry" />
        </mxCell>
        <mxCell id="dlD8IBOsBmWyrxZdzXUg-119" value="&lt;font style=&quot;vertical-align: inherit&quot;&gt;&lt;font style=&quot;vertical-align: inherit&quot;&gt;{2}&lt;/font&gt;&lt;/font&gt;" style="shape=partialRectangle;html=1;whiteSpace=wrap;connectable=0;overflow=hidden;fillColor=none;top=0;left=0;bottom=0;right=0;" vertex="1" parent="dlD8IBOsBmWyrxZdzXUg-116">
          <mxGeometry x="220" width="110" height="50" as="geometry" />
        </mxCell>
        <mxCell id="dlD8IBOsBmWyrxZdzXUg-120" value="" style="shape=partialRectangle;html=1;whiteSpace=wrap;connectable=0;overflow=hidden;fillColor=none;top=0;left=0;bottom=0;right=0;" vertex="1" parent="dlD8IBOsBmWyrxZdzXUg-116">
          <mxGeometry x="330" width="110" height="50" as="geometry" />
        </mxCell>
        <mxCell id="dlD8IBOsBmWyrxZdzXUg-121" value="" style="shape=partialRectangle;html=1;whiteSpace=wrap;connectable=0;overflow=hidden;fillColor=none;top=0;left=0;bottom=0;right=0;" vertex="1" parent="dlD8IBOsBmWyrxZdzXUg-116">
          <mxGeometry x="440" width="100" height="50" as="geometry" />
        </mxCell>
        <mxCell id="dlD8IBOsBmWyrxZdzXUg-122" value="" style="shape=partialRectangle;html=1;whiteSpace=wrap;collapsible=0;dropTarget=0;pointerEvents=0;fillColor=none;top=0;left=0;bottom=0;right=0;points=[[0,0.5],[1,0.5]];portConstraint=eastwest;" vertex="1" parent="dlD8IBOsBmWyrxZdzXUg-103">
          <mxGeometry y="150" width="540" height="50" as="geometry" />
        </mxCell>
        <mxCell id="dlD8IBOsBmWyrxZdzXUg-123" value="&lt;font style=&quot;vertical-align: inherit&quot;&gt;&lt;font style=&quot;vertical-align: inherit&quot;&gt;3&lt;/font&gt;&lt;/font&gt;" style="shape=partialRectangle;html=1;whiteSpace=wrap;connectable=0;overflow=hidden;fillColor=none;top=0;left=0;bottom=0;right=0;" vertex="1" parent="dlD8IBOsBmWyrxZdzXUg-122">
          <mxGeometry width="110" height="50" as="geometry" />
        </mxCell>
        <mxCell id="dlD8IBOsBmWyrxZdzXUg-124" value="&lt;font style=&quot;vertical-align: inherit&quot;&gt;&lt;font style=&quot;vertical-align: inherit&quot;&gt;10&lt;/font&gt;&lt;/font&gt;" style="shape=partialRectangle;html=1;whiteSpace=wrap;connectable=0;overflow=hidden;fillColor=none;top=0;left=0;bottom=0;right=0;" vertex="1" parent="dlD8IBOsBmWyrxZdzXUg-122">
          <mxGeometry x="110" width="110" height="50" as="geometry" />
        </mxCell>
        <mxCell id="dlD8IBOsBmWyrxZdzXUg-125" value="&lt;font style=&quot;vertical-align: inherit&quot;&gt;&lt;font style=&quot;vertical-align: inherit&quot;&gt;2&lt;/font&gt;&lt;/font&gt;" style="shape=partialRectangle;html=1;whiteSpace=wrap;connectable=0;overflow=hidden;fillColor=none;top=0;left=0;bottom=0;right=0;" vertex="1" parent="dlD8IBOsBmWyrxZdzXUg-122">
          <mxGeometry x="220" width="110" height="50" as="geometry" />
        </mxCell>
        <mxCell id="dlD8IBOsBmWyrxZdzXUg-126" value="&lt;font style=&quot;vertical-align: inherit&quot;&gt;&lt;font style=&quot;vertical-align: inherit&quot;&gt;{20}&lt;/font&gt;&lt;/font&gt;" style="shape=partialRectangle;html=1;whiteSpace=wrap;connectable=0;overflow=hidden;fillColor=none;top=0;left=0;bottom=0;right=0;" vertex="1" parent="dlD8IBOsBmWyrxZdzXUg-122">
          <mxGeometry x="330" width="110" height="50" as="geometry" />
        </mxCell>
        <mxCell id="dlD8IBOsBmWyrxZdzXUg-127" value="" style="shape=partialRectangle;html=1;whiteSpace=wrap;connectable=0;overflow=hidden;fillColor=none;top=0;left=0;bottom=0;right=0;" vertex="1" parent="dlD8IBOsBmWyrxZdzXUg-122">
          <mxGeometry x="440" width="100" height="50" as="geometry" />
        </mxCell>
        <mxCell id="dlD8IBOsBmWyrxZdzXUg-128" value="" style="shape=partialRectangle;html=1;whiteSpace=wrap;collapsible=0;dropTarget=0;pointerEvents=0;fillColor=none;top=0;left=0;bottom=0;right=0;points=[[0,0.5],[1,0.5]];portConstraint=eastwest;" vertex="1" parent="dlD8IBOsBmWyrxZdzXUg-103">
          <mxGeometry y="200" width="540" height="50" as="geometry" />
        </mxCell>
        <mxCell id="dlD8IBOsBmWyrxZdzXUg-129" value="&lt;font style=&quot;vertical-align: inherit&quot;&gt;&lt;font style=&quot;vertical-align: inherit&quot;&gt;6&lt;/font&gt;&lt;/font&gt;" style="shape=partialRectangle;html=1;whiteSpace=wrap;connectable=0;overflow=hidden;fillColor=none;top=0;left=0;bottom=0;right=0;" vertex="1" parent="dlD8IBOsBmWyrxZdzXUg-128">
          <mxGeometry width="110" height="50" as="geometry" />
        </mxCell>
        <mxCell id="dlD8IBOsBmWyrxZdzXUg-130" value="&lt;font style=&quot;vertical-align: inherit&quot;&gt;&lt;font style=&quot;vertical-align: inherit&quot;&gt;10&lt;/font&gt;&lt;/font&gt;" style="shape=partialRectangle;html=1;whiteSpace=wrap;connectable=0;overflow=hidden;fillColor=none;top=0;left=0;bottom=0;right=0;" vertex="1" parent="dlD8IBOsBmWyrxZdzXUg-128">
          <mxGeometry x="110" width="110" height="50" as="geometry" />
        </mxCell>
        <mxCell id="dlD8IBOsBmWyrxZdzXUg-131" value="&lt;font style=&quot;vertical-align: inherit&quot;&gt;&lt;font style=&quot;vertical-align: inherit&quot;&gt;2&lt;/font&gt;&lt;/font&gt;" style="shape=partialRectangle;html=1;whiteSpace=wrap;connectable=0;overflow=hidden;fillColor=none;top=0;left=0;bottom=0;right=0;" vertex="1" parent="dlD8IBOsBmWyrxZdzXUg-128">
          <mxGeometry x="220" width="110" height="50" as="geometry" />
        </mxCell>
        <mxCell id="dlD8IBOsBmWyrxZdzXUg-132" value="&lt;font style=&quot;vertical-align: inherit&quot;&gt;&lt;font style=&quot;vertical-align: inherit&quot;&gt;20&lt;/font&gt;&lt;/font&gt;" style="shape=partialRectangle;html=1;whiteSpace=wrap;connectable=0;overflow=hidden;fillColor=none;top=0;left=0;bottom=0;right=0;" vertex="1" parent="dlD8IBOsBmWyrxZdzXUg-128">
          <mxGeometry x="330" width="110" height="50" as="geometry" />
        </mxCell>
        <mxCell id="dlD8IBOsBmWyrxZdzXUg-133" value="&lt;font style=&quot;vertical-align: inherit&quot;&gt;&lt;font style=&quot;vertical-align: inherit&quot;&gt;e_nro_2&lt;br&gt;e_nro_1&lt;br&gt;e_nro_3&lt;br&gt;&lt;/font&gt;&lt;/font&gt;" style="shape=partialRectangle;html=1;whiteSpace=wrap;connectable=0;overflow=hidden;fillColor=none;top=0;left=0;bottom=0;right=0;" vertex="1" parent="dlD8IBOsBmWyrxZdzXUg-128">
          <mxGeometry x="440" width="100" height="50" as="geometry" />
        </mxCell>
        <mxCell id="dlD8IBOsBmWyrxZdzXUg-136" value="&lt;font style=&quot;vertical-align: inherit&quot;&gt;&lt;font style=&quot;vertical-align: inherit&quot;&gt;ii.&lt;/font&gt;&lt;/font&gt;" style="whiteSpace=wrap;html=1;" vertex="1" parent="WIyWlLk6GJQsqaUBKTNV-1">
          <mxGeometry y="430" width="540" height="30" as="geometry" />
        </mxCell>
        <mxCell id="dlD8IBOsBmWyrxZdzXUg-137" value="" style="shape=table;html=1;whiteSpace=wrap;startSize=0;container=1;collapsible=0;childLayout=tableLayout;" vertex="1" parent="WIyWlLk6GJQsqaUBKTNV-1">
          <mxGeometry y="800" width="540" height="280" as="geometry" />
        </mxCell>
        <mxCell id="dlD8IBOsBmWyrxZdzXUg-138" value="" style="shape=partialRectangle;html=1;whiteSpace=wrap;collapsible=0;dropTarget=0;pointerEvents=0;fillColor=none;top=0;left=0;bottom=0;right=0;points=[[0,0.5],[1,0.5]];portConstraint=eastwest;" vertex="1" parent="dlD8IBOsBmWyrxZdzXUg-137">
          <mxGeometry width="540" height="56" as="geometry" />
        </mxCell>
        <mxCell id="dlD8IBOsBmWyrxZdzXUg-139" value="&lt;font style=&quot;vertical-align: inherit&quot;&gt;&lt;font style=&quot;vertical-align: inherit&quot;&gt;processo&lt;/font&gt;&lt;/font&gt;" style="shape=partialRectangle;html=1;whiteSpace=wrap;connectable=0;overflow=hidden;fillColor=none;top=0;left=0;bottom=0;right=0;" vertex="1" parent="dlD8IBOsBmWyrxZdzXUg-138">
          <mxGeometry width="108" height="56" as="geometry" />
        </mxCell>
        <mxCell id="dlD8IBOsBmWyrxZdzXUg-140" value="&lt;font style=&quot;vertical-align: inherit&quot;&gt;&lt;font style=&quot;vertical-align: inherit&quot;&gt;e_nro_1&lt;/font&gt;&lt;/font&gt;" style="shape=partialRectangle;html=1;whiteSpace=wrap;connectable=0;overflow=hidden;fillColor=none;top=0;left=0;bottom=0;right=0;" vertex="1" parent="dlD8IBOsBmWyrxZdzXUg-138">
          <mxGeometry x="108" width="108" height="56" as="geometry" />
        </mxCell>
        <mxCell id="dlD8IBOsBmWyrxZdzXUg-141" value="&lt;font style=&quot;vertical-align: inherit&quot;&gt;&lt;font style=&quot;vertical-align: inherit&quot;&gt;e_nro_2&lt;/font&gt;&lt;/font&gt;" style="shape=partialRectangle;html=1;whiteSpace=wrap;connectable=0;overflow=hidden;fillColor=none;top=0;left=0;bottom=0;right=0;" vertex="1" parent="dlD8IBOsBmWyrxZdzXUg-138">
          <mxGeometry x="216" width="108" height="56" as="geometry" />
        </mxCell>
        <mxCell id="dlD8IBOsBmWyrxZdzXUg-142" value="&lt;font style=&quot;vertical-align: inherit&quot;&gt;&lt;font style=&quot;vertical-align: inherit&quot;&gt;&lt;font style=&quot;vertical-align: inherit&quot;&gt;&lt;font style=&quot;vertical-align: inherit&quot;&gt;e_nro_3&lt;/font&gt;&lt;/font&gt;&lt;/font&gt;&lt;/font&gt;" style="shape=partialRectangle;html=1;whiteSpace=wrap;connectable=0;overflow=hidden;fillColor=none;top=0;left=0;bottom=0;right=0;" vertex="1" parent="dlD8IBOsBmWyrxZdzXUg-138">
          <mxGeometry x="324" width="108" height="56" as="geometry" />
        </mxCell>
        <mxCell id="dlD8IBOsBmWyrxZdzXUg-143" value="&lt;font style=&quot;vertical-align: inherit&quot;&gt;&lt;font style=&quot;vertical-align: inherit&quot;&gt;Saida&lt;/font&gt;&lt;/font&gt;" style="shape=partialRectangle;html=1;whiteSpace=wrap;connectable=0;overflow=hidden;fillColor=none;top=0;left=0;bottom=0;right=0;" vertex="1" parent="dlD8IBOsBmWyrxZdzXUg-138">
          <mxGeometry x="432" width="108" height="56" as="geometry" />
        </mxCell>
        <mxCell id="dlD8IBOsBmWyrxZdzXUg-144" value="" style="shape=partialRectangle;html=1;whiteSpace=wrap;collapsible=0;dropTarget=0;pointerEvents=0;fillColor=none;top=0;left=0;bottom=0;right=0;points=[[0,0.5],[1,0.5]];portConstraint=eastwest;" vertex="1" parent="dlD8IBOsBmWyrxZdzXUg-137">
          <mxGeometry y="56" width="540" height="56" as="geometry" />
        </mxCell>
        <mxCell id="dlD8IBOsBmWyrxZdzXUg-145" value="&lt;font style=&quot;vertical-align: inherit&quot;&gt;&lt;font style=&quot;vertical-align: inherit&quot;&gt;1&lt;/font&gt;&lt;/font&gt;" style="shape=partialRectangle;html=1;whiteSpace=wrap;connectable=0;overflow=hidden;fillColor=none;top=0;left=0;bottom=0;right=0;" vertex="1" parent="dlD8IBOsBmWyrxZdzXUg-144">
          <mxGeometry width="108" height="56" as="geometry" />
        </mxCell>
        <mxCell id="dlD8IBOsBmWyrxZdzXUg-146" value="&lt;font style=&quot;vertical-align: inherit&quot;&gt;&lt;font style=&quot;vertical-align: inherit&quot;&gt;{3}&lt;/font&gt;&lt;/font&gt;" style="shape=partialRectangle;html=1;whiteSpace=wrap;connectable=0;overflow=hidden;fillColor=none;top=0;left=0;bottom=0;right=0;" vertex="1" parent="dlD8IBOsBmWyrxZdzXUg-144">
          <mxGeometry x="108" width="108" height="56" as="geometry" />
        </mxCell>
        <mxCell id="dlD8IBOsBmWyrxZdzXUg-147" value="" style="shape=partialRectangle;html=1;whiteSpace=wrap;connectable=0;overflow=hidden;fillColor=none;top=0;left=0;bottom=0;right=0;" vertex="1" parent="dlD8IBOsBmWyrxZdzXUg-144">
          <mxGeometry x="216" width="108" height="56" as="geometry" />
        </mxCell>
        <mxCell id="dlD8IBOsBmWyrxZdzXUg-148" value="" style="shape=partialRectangle;html=1;whiteSpace=wrap;connectable=0;overflow=hidden;fillColor=none;top=0;left=0;bottom=0;right=0;" vertex="1" parent="dlD8IBOsBmWyrxZdzXUg-144">
          <mxGeometry x="324" width="108" height="56" as="geometry" />
        </mxCell>
        <mxCell id="dlD8IBOsBmWyrxZdzXUg-149" value="" style="shape=partialRectangle;html=1;whiteSpace=wrap;connectable=0;overflow=hidden;fillColor=none;top=0;left=0;bottom=0;right=0;" vertex="1" parent="dlD8IBOsBmWyrxZdzXUg-144">
          <mxGeometry x="432" width="108" height="56" as="geometry" />
        </mxCell>
        <mxCell id="dlD8IBOsBmWyrxZdzXUg-150" value="" style="shape=partialRectangle;html=1;whiteSpace=wrap;collapsible=0;dropTarget=0;pointerEvents=0;fillColor=none;top=0;left=0;bottom=0;right=0;points=[[0,0.5],[1,0.5]];portConstraint=eastwest;" vertex="1" parent="dlD8IBOsBmWyrxZdzXUg-137">
          <mxGeometry y="112" width="540" height="56" as="geometry" />
        </mxCell>
        <mxCell id="dlD8IBOsBmWyrxZdzXUg-151" value="&lt;font style=&quot;vertical-align: inherit&quot;&gt;&lt;font style=&quot;vertical-align: inherit&quot;&gt;2&lt;/font&gt;&lt;/font&gt;" style="shape=partialRectangle;html=1;whiteSpace=wrap;connectable=0;overflow=hidden;fillColor=none;top=0;left=0;bottom=0;right=0;" vertex="1" parent="dlD8IBOsBmWyrxZdzXUg-150">
          <mxGeometry width="108" height="56" as="geometry" />
        </mxCell>
        <mxCell id="dlD8IBOsBmWyrxZdzXUg-152" value="&lt;font style=&quot;vertical-align: inherit&quot;&gt;&lt;font style=&quot;vertical-align: inherit&quot;&gt;3&lt;/font&gt;&lt;/font&gt;" style="shape=partialRectangle;html=1;whiteSpace=wrap;connectable=0;overflow=hidden;fillColor=none;top=0;left=0;bottom=0;right=0;" vertex="1" parent="dlD8IBOsBmWyrxZdzXUg-150">
          <mxGeometry x="108" width="108" height="56" as="geometry" />
        </mxCell>
        <mxCell id="dlD8IBOsBmWyrxZdzXUg-153" value="&lt;font style=&quot;vertical-align: inherit&quot;&gt;&lt;font style=&quot;vertical-align: inherit&quot;&gt;{20}&lt;/font&gt;&lt;/font&gt;" style="shape=partialRectangle;html=1;whiteSpace=wrap;connectable=0;overflow=hidden;fillColor=none;top=0;left=0;bottom=0;right=0;" vertex="1" parent="dlD8IBOsBmWyrxZdzXUg-150">
          <mxGeometry x="216" width="108" height="56" as="geometry" />
        </mxCell>
        <mxCell id="dlD8IBOsBmWyrxZdzXUg-154" value="" style="shape=partialRectangle;html=1;whiteSpace=wrap;connectable=0;overflow=hidden;fillColor=none;top=0;left=0;bottom=0;right=0;" vertex="1" parent="dlD8IBOsBmWyrxZdzXUg-150">
          <mxGeometry x="324" width="108" height="56" as="geometry" />
        </mxCell>
        <mxCell id="dlD8IBOsBmWyrxZdzXUg-155" value="" style="shape=partialRectangle;html=1;whiteSpace=wrap;connectable=0;overflow=hidden;fillColor=none;top=0;left=0;bottom=0;right=0;" vertex="1" parent="dlD8IBOsBmWyrxZdzXUg-150">
          <mxGeometry x="432" width="108" height="56" as="geometry" />
        </mxCell>
        <mxCell id="dlD8IBOsBmWyrxZdzXUg-156" value="" style="shape=partialRectangle;html=1;whiteSpace=wrap;collapsible=0;dropTarget=0;pointerEvents=0;fillColor=none;top=0;left=0;bottom=0;right=0;points=[[0,0.5],[1,0.5]];portConstraint=eastwest;" vertex="1" parent="dlD8IBOsBmWyrxZdzXUg-137">
          <mxGeometry y="168" width="540" height="56" as="geometry" />
        </mxCell>
        <mxCell id="dlD8IBOsBmWyrxZdzXUg-157" value="&lt;font style=&quot;vertical-align: inherit&quot;&gt;&lt;font style=&quot;vertical-align: inherit&quot;&gt;3&lt;/font&gt;&lt;/font&gt;" style="shape=partialRectangle;html=1;whiteSpace=wrap;connectable=0;overflow=hidden;fillColor=none;top=0;left=0;bottom=0;right=0;" vertex="1" parent="dlD8IBOsBmWyrxZdzXUg-156">
          <mxGeometry width="108" height="56" as="geometry" />
        </mxCell>
        <mxCell id="dlD8IBOsBmWyrxZdzXUg-158" value="&lt;font style=&quot;vertical-align: inherit&quot;&gt;&lt;font style=&quot;vertical-align: inherit&quot;&gt;3&lt;/font&gt;&lt;/font&gt;" style="shape=partialRectangle;html=1;whiteSpace=wrap;connectable=0;overflow=hidden;fillColor=none;top=0;left=0;bottom=0;right=0;" vertex="1" parent="dlD8IBOsBmWyrxZdzXUg-156">
          <mxGeometry x="108" width="108" height="56" as="geometry" />
        </mxCell>
        <mxCell id="dlD8IBOsBmWyrxZdzXUg-159" value="&lt;font style=&quot;vertical-align: inherit&quot;&gt;&lt;font style=&quot;vertical-align: inherit&quot;&gt;20&lt;/font&gt;&lt;/font&gt;" style="shape=partialRectangle;html=1;whiteSpace=wrap;connectable=0;overflow=hidden;fillColor=none;top=0;left=0;bottom=0;right=0;" vertex="1" parent="dlD8IBOsBmWyrxZdzXUg-156">
          <mxGeometry x="216" width="108" height="56" as="geometry" />
        </mxCell>
        <mxCell id="dlD8IBOsBmWyrxZdzXUg-160" value="&lt;font style=&quot;vertical-align: inherit&quot;&gt;&lt;font style=&quot;vertical-align: inherit&quot;&gt;{54}&lt;/font&gt;&lt;/font&gt;" style="shape=partialRectangle;html=1;whiteSpace=wrap;connectable=0;overflow=hidden;fillColor=none;top=0;left=0;bottom=0;right=0;" vertex="1" parent="dlD8IBOsBmWyrxZdzXUg-156">
          <mxGeometry x="324" width="108" height="56" as="geometry" />
        </mxCell>
        <mxCell id="dlD8IBOsBmWyrxZdzXUg-161" value="" style="shape=partialRectangle;html=1;whiteSpace=wrap;connectable=0;overflow=hidden;fillColor=none;top=0;left=0;bottom=0;right=0;" vertex="1" parent="dlD8IBOsBmWyrxZdzXUg-156">
          <mxGeometry x="432" width="108" height="56" as="geometry" />
        </mxCell>
        <mxCell id="dlD8IBOsBmWyrxZdzXUg-162" value="" style="shape=partialRectangle;html=1;whiteSpace=wrap;collapsible=0;dropTarget=0;pointerEvents=0;fillColor=none;top=0;left=0;bottom=0;right=0;points=[[0,0.5],[1,0.5]];portConstraint=eastwest;" vertex="1" parent="dlD8IBOsBmWyrxZdzXUg-137">
          <mxGeometry y="224" width="540" height="56" as="geometry" />
        </mxCell>
        <mxCell id="dlD8IBOsBmWyrxZdzXUg-163" value="&lt;font style=&quot;vertical-align: inherit&quot;&gt;&lt;font style=&quot;vertical-align: inherit&quot;&gt;9&lt;/font&gt;&lt;/font&gt;" style="shape=partialRectangle;html=1;whiteSpace=wrap;connectable=0;overflow=hidden;fillColor=none;top=0;left=0;bottom=0;right=0;" vertex="1" parent="dlD8IBOsBmWyrxZdzXUg-162">
          <mxGeometry width="108" height="56" as="geometry" />
        </mxCell>
        <mxCell id="dlD8IBOsBmWyrxZdzXUg-164" value="&lt;font style=&quot;vertical-align: inherit&quot;&gt;&lt;font style=&quot;vertical-align: inherit&quot;&gt;3&lt;/font&gt;&lt;/font&gt;" style="shape=partialRectangle;html=1;whiteSpace=wrap;connectable=0;overflow=hidden;fillColor=none;top=0;left=0;bottom=0;right=0;" vertex="1" parent="dlD8IBOsBmWyrxZdzXUg-162">
          <mxGeometry x="108" width="108" height="56" as="geometry" />
        </mxCell>
        <mxCell id="dlD8IBOsBmWyrxZdzXUg-165" value="&lt;font style=&quot;vertical-align: inherit&quot;&gt;&lt;font style=&quot;vertical-align: inherit&quot;&gt;20&lt;/font&gt;&lt;/font&gt;" style="shape=partialRectangle;html=1;whiteSpace=wrap;connectable=0;overflow=hidden;fillColor=none;top=0;left=0;bottom=0;right=0;" vertex="1" parent="dlD8IBOsBmWyrxZdzXUg-162">
          <mxGeometry x="216" width="108" height="56" as="geometry" />
        </mxCell>
        <mxCell id="dlD8IBOsBmWyrxZdzXUg-166" value="&lt;font style=&quot;vertical-align: inherit&quot;&gt;&lt;font style=&quot;vertical-align: inherit&quot;&gt;54&lt;/font&gt;&lt;/font&gt;" style="shape=partialRectangle;html=1;whiteSpace=wrap;connectable=0;overflow=hidden;fillColor=none;top=0;left=0;bottom=0;right=0;" vertex="1" parent="dlD8IBOsBmWyrxZdzXUg-162">
          <mxGeometry x="324" width="108" height="56" as="geometry" />
        </mxCell>
        <mxCell id="dlD8IBOsBmWyrxZdzXUg-167" value="&lt;font style=&quot;vertical-align: inherit&quot;&gt;&lt;font style=&quot;vertical-align: inherit&quot;&gt;e_nro_1&lt;br&gt;e_nro_2&lt;br&gt;e_nro_3&lt;br&gt;&lt;/font&gt;&lt;/font&gt;" style="shape=partialRectangle;html=1;whiteSpace=wrap;connectable=0;overflow=hidden;fillColor=none;top=0;left=0;bottom=0;right=0;" vertex="1" parent="dlD8IBOsBmWyrxZdzXUg-162">
          <mxGeometry x="432" width="108" height="56" as="geometry" />
        </mxCell>
        <mxCell id="dlD8IBOsBmWyrxZdzXUg-168" value="&lt;font style=&quot;vertical-align: inherit&quot;&gt;&lt;font style=&quot;vertical-align: inherit&quot;&gt;iii.&lt;/font&gt;&lt;/font&gt;" style="whiteSpace=wrap;html=1;" vertex="1" parent="WIyWlLk6GJQsqaUBKTNV-1">
          <mxGeometry y="770" width="540" height="30" as="geometry" />
        </mxCell>
      </root>
    </mxGraphModel>
  </diagram>
</mxfile>
